<?xml version="1.0" encoding="utf-8"?>
<!-- Generator: Adobe Illustrator 24.1.1, SVG Export Plug-In . SVG Version: 6.00 Build 0)  -->
<svg version="1.1" id="Capa_1" xmlns="http://www.w3.org/2000/svg" xmlns:xlink="http://www.w3.org/1999/xlink" x="0px" y="0px"
	 viewBox="0 0 139 24" style="enable-background:new 0 0 139 24;" xml:space="preserve">
<style type="text/css">
	.st3{fill:##0D1733;}
</style>
<g>
	<g>
		<path class="st3" d="M31.3,6l-3.2,9h-0.1l-3.3-9h-3.1l4.7,12.6h0.7v0.1l-0.3,0.7c-0.2,0.5-0.4,0.8-0.5,1c-0.1,0.2-0.3,0.3-0.5,0.4
			c-0.2,0.1-0.5,0.1-0.8,0.1h-1.6v2.9h2.7c0.6,0,1.1-0.1,1.5-0.3c0.4-0.2,0.7-0.5,0.9-1c0.2-0.4,0.5-1.1,0.9-2.1L34.4,6H31.3z"/>
		<path class="st3" d="M43.8,7.1L43.8,7.1c-0.5-0.5-1-0.9-1.5-1.2c-0.6-0.2-1.3-0.4-2.1-0.4c-1.2,0-2.2,0.3-3.2,0.8
			c-1,0.6-1.7,1.4-2.2,2.4c-0.5,1-0.8,2.2-0.8,3.5c0,1.2,0.3,2.3,0.8,3.3c0.5,1,1.3,1.8,2.2,2.4c0.9,0.6,2,0.9,3.1,0.9
			c0.9,0,1.7-0.2,2.3-0.5c0.6-0.3,1.1-0.8,1.3-1.4h0.1v1.6H47V1h-3.2V7.1z M43.1,14.8c-0.6,0.7-1.5,1.1-2.5,1.1
			c-1.1,0-1.9-0.4-2.5-1.1c-0.6-0.7-0.9-1.6-0.9-2.7c0-1.1,0.3-2,0.9-2.7c0.6-0.7,1.5-1.1,2.5-1.1c1.1,0,1.9,0.4,2.5,1.1
			c0.6,0.7,0.9,1.6,0.9,2.7C44,13.2,43.7,14.1,43.1,14.8z"/>
		<path class="st3" d="M57.7,5.8H56c-0.9,0-1.6,0.2-2.1,0.6c-0.5,0.4-0.8,0.8-1,1.4h-0.1V6h-3.2v12.6h3.2V12c0-2.2,1.1-3.3,3.2-3.3
			h1.7V5.8z"/>
		<path class="st3" d="M67.6,6.4c-1-0.5-2.1-0.8-3.3-0.8c-1.3,0-2.4,0.3-3.4,0.9c-1,0.6-1.8,1.4-2.4,2.4c-0.6,1-0.9,2.1-0.9,3.4
			c0,1.3,0.3,2.5,0.9,3.5c0.6,1,1.4,1.8,2.4,2.3c1,0.5,2.1,0.8,3.4,0.8c1.3,0,2.4-0.3,3.4-0.9c1-0.6,1.8-1.4,2.4-2.4
			c0.6-1,0.8-2.1,0.8-3.4c0-1.3-0.3-2.5-0.9-3.5C69.4,7.7,68.6,6.9,67.6,6.4z M66.8,14.8c-0.6,0.7-1.5,1.1-2.5,1.1
			c-1.1,0-1.9-0.3-2.5-1.1c-0.6-0.7-0.9-1.6-0.9-2.6c0-1.1,0.3-1.9,0.9-2.6c0.6-0.7,1.5-1.1,2.5-1.1c1.1,0,1.9,0.4,2.5,1.1
			c0.6,0.7,0.9,1.6,0.9,2.6C67.7,13.3,67.4,14.1,66.8,14.8z"/>
		<path class="st3" d="M82.8,6.4c-1-0.5-2-0.8-3.2-0.8c-0.8,0-1.5,0.1-2.1,0.4c-0.6,0.3-1.1,0.7-1.5,1.2H76V6h-3.2v17.6H76v-6.2h0.1
			c0.6,0.5,1.2,0.8,1.7,1.1c0.6,0.2,1.2,0.3,1.9,0.3c1.1,0,2.1-0.3,3.1-0.8c0.9-0.6,1.7-1.4,2.2-2.4c0.5-1,0.8-2.2,0.8-3.5
			c0-1.3-0.3-2.4-0.8-3.4C84.5,7.7,83.7,6.9,82.8,6.4z M81.8,14.8c-0.6,0.7-1.5,1.1-2.5,1.1c-1.1,0-1.9-0.3-2.5-1.1
			c-0.6-0.7-0.9-1.6-0.9-2.6c0-1.1,0.3-1.9,0.9-2.6c0.6-0.7,1.5-1.1,2.5-1.1c1.1,0,1.9,0.4,2.5,1.1c0.6,0.7,0.9,1.6,0.9,2.6
			C82.7,13.3,82.4,14.1,81.8,14.8z"/>
		<path class="st3" d="M91.4,2.7h-3.2V6h-1.1v2.3h1.1v7.7c0,1.7,0.9,2.6,2.6,2.6h3.8v-2.9h-2c-0.4,0-0.8-0.1-1-0.3
			c-0.2-0.2-0.3-0.6-0.3-1.1v-6h3.3V6h-3.3V2.7z"/>
		<rect x="96.6" y="6" class="st3" width="3.2" height="12.6"/>
		<path class="st3" d="M98.2,1.3c-0.5,0-1,0.2-1.3,0.5c-0.4,0.4-0.5,0.8-0.5,1.3c0,0.5,0.2,0.9,0.5,1.3c0.4,0.4,0.8,0.5,1.3,0.5
			c0.5,0,1-0.2,1.3-0.5c0.4-0.4,0.5-0.8,0.5-1.3c0-0.5-0.2-0.9-0.5-1.3C99.1,1.4,98.7,1.3,98.2,1.3z"/>
		<path class="st3" d="M117.9,5.6c-1.7,0-3.1,0.8-4.1,2.3h-0.1c-0.3-0.7-0.9-1.2-1.6-1.7c-0.8-0.4-1.6-0.6-2.5-0.6
			c-0.9,0-1.7,0.2-2.4,0.7c-0.7,0.4-1.3,1-1.6,1.6h-0.1V6h-3.2v12.6h3.2v-6.9c0-1.1,0.2-1.9,0.7-2.6c0.5-0.6,1.2-1,2.2-1
			c0.8,0,1.4,0.2,1.9,0.7c0.5,0.5,0.7,1.2,0.7,2.2v7.5h3.2v-6.9c0-1.1,0.2-1.9,0.7-2.6c0.5-0.6,1.2-1,2.2-1c0.8,0,1.4,0.3,1.9,0.8
			c0.5,0.5,0.7,1.2,0.7,2.1v7.5h3.2v-8.3c0-1.4-0.5-2.5-1.4-3.4C120.7,6,119.5,5.6,117.9,5.6z"/>
		<path class="st3" d="M134.9,6.9c-1-0.9-2.4-1.3-4.1-1.3c-2.2,0-4.1,0.7-5.6,2.2l1.9,1.9c1-0.9,2.1-1.3,3.3-1.3
			c0.9,0,1.5,0.2,2.1,0.6c0.5,0.4,0.8,1,0.8,1.7V11h-3.4c-1.6,0-2.9,0.4-3.8,1.1c-0.9,0.7-1.4,1.7-1.4,2.9c0,0.8,0.2,1.5,0.6,2.1
			c0.4,0.6,0.9,1,1.5,1.4c0.6,0.3,1.4,0.5,2.1,0.5c0.9,0,1.7-0.2,2.4-0.5c0.7-0.4,1.3-0.9,1.9-1.6h0.1v1.8h3.2v-7.7
			C136.5,9.1,135.9,7.8,134.9,6.9z M133.3,13.4c0,0.5-0.1,1-0.4,1.4c-0.3,0.4-0.7,0.8-1.2,1.1c-0.5,0.3-1.1,0.4-1.8,0.4
			c-0.7,0-1.2-0.1-1.5-0.4c-0.3-0.3-0.5-0.6-0.5-1c0-0.4,0.1-0.8,0.4-1.1c0.3-0.3,0.8-0.4,1.5-0.4L133.3,13.4L133.3,13.4z"/>
		<path class="st3" d="M19,8.4V1.1h-3.3v6.7c-0.5-0.2-1-0.3-1.5-0.5c-1.4-0.5-2.8-0.9-4.3-0.8C9,6.6,8.1,6.9,7.3,7.4V7h0V1.1H4.1
			v7.7c-0.9,0.2-1.7,0.7-2.5,1.4C2.1,10,2.6,9.8,3.2,9.7c0.3-0.1,0.6-0.1,0.9,0v8.9h3.3v-5.3h0v-2.5c1,0.5,2.1,1.1,3.1,1.6
			c2.1,1,3.8,0.8,5.2-0.5v6.7H19v-8.2c1-0.4,1.8-1.1,2.5-2.2c-0.8,0.1-1.6,0.2-2.3,0.2C19.1,8.4,19,8.4,19,8.4z M11.9,10.3
			c-1.5-0.5-3-1-4.5-1.5c0,0,0,0,0,0V7.9c1.3-0.4,1.9-0.4,2.8,0c1.9,0.7,3.7,1.6,5.6,2.4v0.4C14.4,10.9,13.1,10.7,11.9,10.3z"/>
	</g>
</g>
</svg>
